<svg xmlns="http://www.w3.org/2000/svg" width="1250" height="580" viewBox="0 0 1250 580" font-family="Cairo, Segoe UI, Amiri, sans-serif">
<defs><marker id="ar-end" viewBox="0 0 10 10" refX="9" refY="5" markerWidth="8" markerHeight="8" orient="auto-start-reverse"><path d="M0,0 L10,5 L0,10 z" fill="#595959"/></marker><marker id="ar-open" viewBox="0 0 10 10" refX="9" refY="5" markerWidth="9" markerHeight="9" orient="auto-start-reverse"><path d="M1,1 L9,5 L1,9" fill="none" stroke="#595959" stroke-width="1.6"/></marker><marker id="ar-start" viewBox="0 0 10 10" refX="1" refY="5" markerWidth="8" markerHeight="8" orient="auto-start-reverse"><path d="M10,0 L0,5 L10,10 z" fill="#595959"/></marker></defs>
<rect width="1250" height="580" fill="#ffffff"/>
<rect x="810" y="100" width="230" height="78" rx="10" fill="#dae8fc" stroke="#6c8ebf" stroke-width="1.6" />
<text x="925.0" y="143.68" font-size="13" fill="#1a1a1a" text-anchor="middle" font-weight="bold"  direction="rtl" unicode-bidi="plaintext">① التخطيط والتحليل</text>
<rect x="465" y="100" width="230" height="78" rx="10" fill="#d5e8d4" stroke="#82b366" stroke-width="1.6" />
<text x="580.0" y="143.68" font-size="13" fill="#1a1a1a" text-anchor="middle" font-weight="bold"  direction="rtl" unicode-bidi="plaintext">② التصميم</text>
<rect x="120" y="100" width="230" height="78" rx="10" fill="#ffe6cc" stroke="#d79b00" stroke-width="1.6" />
<text x="235.0" y="143.68" font-size="13" fill="#1a1a1a" text-anchor="middle" font-weight="bold"  direction="rtl" unicode-bidi="plaintext">③ التنفيذ</text>
<rect x="120" y="380" width="230" height="78" rx="10" fill="#fff2cc" stroke="#d6b656" stroke-width="1.6" />
<text x="235.0" y="423.68" font-size="13" fill="#1a1a1a" text-anchor="middle" font-weight="bold"  direction="rtl" unicode-bidi="plaintext">④ الاختبار</text>
<rect x="465" y="380" width="230" height="78" rx="10" fill="#e1d5e7" stroke="#9673a6" stroke-width="1.6" />
<text x="580.0" y="423.68" font-size="13" fill="#1a1a1a" text-anchor="middle" font-weight="bold"  direction="rtl" unicode-bidi="plaintext">⑤ المراجعة والدمج</text>
<rect x="810" y="380" width="230" height="78" rx="10" fill="#f5f5f5" stroke="#666666" stroke-width="1.6" />
<text x="925.0" y="423.68" font-size="13" fill="#1a1a1a" text-anchor="middle" font-weight="bold"  direction="rtl" unicode-bidi="plaintext">⑥ التغذية الراجعة</text>
<polyline points="810,139.0 785.0,135.0 713,139.0 695,139.0" fill="none" stroke="#595959" stroke-width="1.7" marker-end="url(#ar-end)" />
<polyline points="465,139.0 435.0,135.0 368,139.0 350,139.0" fill="none" stroke="#595959" stroke-width="1.7" marker-end="url(#ar-end)" />
<polyline points="235.0,178 235.0,380" fill="none" stroke="#595959" stroke-width="1.7" marker-end="url(#ar-end)" />
<polyline points="350,419.0 375.0,415.0 447,419.0 465,419.0" fill="none" stroke="#595959" stroke-width="1.7" marker-end="url(#ar-end)" />
<polyline points="695,419.0 725.0,415.0 792,419.0 810,419.0" fill="none" stroke="#595959" stroke-width="1.7" marker-end="url(#ar-end)" />
<polyline points="925.0,380 925.0,178" fill="none" stroke="#7a4f00" stroke-width="1.7" marker-end="url(#ar-end)" />
<rect x="935.0" y="268.0" width="126.48" height="20" fill="#ffffff" fill-opacity="0.94" rx="4" stroke="#d8d8d8" stroke-width="0.7"/>
<text x="998.24" y="283.0" font-size="12" fill="#333" text-anchor="middle" direction="rtl" unicode-bidi="plaintext" font-style="italic">تكرار Sprint جديد</text>
<text x="625" y="540" font-size="13" fill="#333" text-anchor="middle" font-weight="bold"  direction="rtl" unicode-bidi="plaintext">التكرارات الأربعة المُنفَّذة: ① الخريطة + الخوارزميات ② الخادم و REST ③ العميل التفاعلي ④ NLU + الأمان + UX</text>
</svg>